<svg width="52" height="52" viewBox="0 0 52 52" fill="none" xmlns="http://www.w3.org/2000/svg">
<path d="M26 47.6666C25.4944 47.6666 25.0611 47.5222 24.7 47.2333C24.3389 46.9444 24.068 46.5653 23.8875 46.0958C23.2014 44.0736 22.3347 42.1778 21.2875 40.4083C20.2764 38.6389 18.85 36.5625 17.0083 34.1791C15.1666 31.7958 13.668 29.5208 12.5125 27.3541C11.393 25.1875 10.8333 22.5694 10.8333 19.5C10.8333 15.275 12.2958 11.7 15.2208 8.77498C18.1819 5.81387 21.775 4.33331 26 4.33331C30.225 4.33331 33.8 5.81387 36.725 8.77498C39.6861 11.7 41.1666 15.275 41.1666 19.5C41.1666 22.7861 40.5347 25.5305 39.2708 27.7333C38.043 29.9 36.6166 32.0486 34.9916 34.1791C33.0416 36.7791 31.5611 38.9458 30.55 40.6791C29.575 42.3764 28.7625 44.1819 28.1125 46.0958C27.9319 46.6014 27.643 46.9986 27.2458 47.2875C26.8847 47.5403 26.4694 47.6666 26 47.6666ZM26 39.9208C26.6139 38.693 27.3 37.4833 28.0583 36.2916C28.8528 35.1 30.0083 33.5111 31.525 31.525C33.0778 29.5028 34.3416 27.643 35.3166 25.9458C36.3278 24.2125 36.8333 22.0639 36.8333 19.5C36.8333 16.5028 35.768 13.9569 33.6375 11.8625C31.543 9.73192 28.9972 8.66665 26 8.66665C23.0028 8.66665 20.4389 9.73192 18.3083 11.8625C16.2139 13.9569 15.1666 16.5028 15.1666 19.5C15.1666 22.0639 15.6541 24.2125 16.6291 25.9458C17.6403 27.643 18.9222 29.5028 20.475 31.525C21.9916 33.5111 23.1291 35.1 23.8875 36.2916C24.6819 37.4833 25.3861 38.693 26 39.9208ZM26 24.9166C27.5166 24.9166 28.7986 24.393 29.8458 23.3458C30.893 22.2986 31.4166 21.0166 31.4166 19.5C31.4166 17.9833 30.893 16.7014 29.8458 15.6541C28.7986 14.6069 27.5166 14.0833 26 14.0833C24.4833 14.0833 23.2014 14.6069 22.1541 15.6541C21.1069 16.7014 20.5833 17.9833 20.5833 19.5C20.5833 21.0166 21.1069 22.2986 22.1541 23.3458C23.2014 24.393 24.4833 24.9166 26 24.9166Z" fill="#5a5858"/>
</svg>
